#!OML:ASF H:\BabyWalks\Project 1\Capture day 1\Session 1\baby.ASF
:FULLY-SPECIFIED
:DEGREES
817
root 18.8356 9.59365 -1.19708 -4.26458 80.3113 -56.2795
lowerback 38.5845 2.63456 -2.78548
upperback 2.69645 3.03178 3.04801
thorax -16.4727 1.6865 3.41027
lowerneck -2.14486 1.74045 0.75305
upperneck -21.4272 1.13654 -11.133
head -6.01193 1.68421 -3.79136
rclavicle 2.42517e-014 1.41137e-014
rhumerus 21.1398 40.2054 -47.4282
rradius 58.3487
rwrist 30.0831
rhand -64.2746 -15.1976
rfingers 7.12502
rthumb -36.211 -41.462
lclavicle 2.42517e-014 1.41137e-014
lhumerus 30.3725 -18.9328 55.3714
lradius 35.6778
lwrist -22.3959
lhand -58.3565 -35.438
lfingers 7.12502
lthumb -30.5859 -7.95839
rfemur -50.3659 3.98135 21.8438
rtibia 111.232
rfoot 32.2714 14.918
rtoes 17.4103
lfemur -23.0617 19.9454 -3.00752
ltibia 92.9425
lfoot 27.7183 -24.6284
ltoes 22.3991
818
root 18.8662 9.62882 -1.15624 -4.69222 80.9723 -56.5577
lowerback 38.8078 2.42323 -2.80494
upperback 2.7113 2.69262 2.69378
thorax -16.4815 1.53504 3.18098
lowerneck -2.13815 1.69063 0.698072
upperneck -21.4553 1.12615 -10.7806
head -6.02867 1.65949 -3.66803
rclavicle -2.38542e-015 6.36111e-015
rhumerus 22.2704 39.7543 -46.4287
rradius 58.5855
rwrist 29.5289
rhand -63.6996 -14.1291
rfingers 7.12502
rthumb -35.6663 -40.5269
lclavicle -2.38542e-015 6.36111e-015
lhumerus 30.8024 -18.957 55.0504
lradius 35.5715
lwrist -22.7743
lhand -58.2215 -35.588
lfingers 7.12502
lthumb -30.4572 -8.08453
rfemur -49.8797 3.50777 21.9574
rtibia 110.686
rfoot 32.7592 14.7726
rtoes 19.2893
lfemur -24.166 20.729 -2.55819
ltibia 93.8997
lfoot 27.8465 -24.7722
ltoes 23.0574
819
root 18.8952 9.66185 -1.11646 -5.1428 81.6027 -56.9159
lowerback 38.9473 2.22268 -2.82441
upperback 2.72491 2.36759 2.33421
thorax -16.4656 1.38984 2.94102
lowerneck -2.13116 1.63726 0.669579
upperneck -21.4849 1.11231 -10.4262
head -6.0456 1.63078 -3.54861
rclavicle -1.86858e-014 1.49089e-014
rhumerus 23.4189 39.2439 -45.4193
rradius 58.7343
rwrist 28.9069
rhand -63.1108 -13.1374
rfingers 7.12502
rthumb -35.108 -39.6681
lclavicle -1.86858e-014 1.49089e-014
lhumerus 31.2497 -19.018 54.7012
lradius 35.4668
lwrist -23.1211
lhand -58.081 -35.7431
lfingers 7.12502
lthumb -30.3232 -8.21488
rfemur -49.4653 3.07298 22.0614
rtibia 110.219
rfoot 33.3672 14.6103
rtoes 20.8383
lfemur -25.3933 21.5894 -2.12056
ltibia 94.9769
lfoot 28.0247 -24.972
ltoes 23.6367
820
root 18.9234 9.69298 -1.07772 -5.5881 82.1908 -57.2908
lowerback 39.0475 2.04552 -2.85979
upperback 2.73946 2.06586 1.97262
thorax -16.4406 1.2558 2.69708
lowerneck -2.12408 1.58045 0.649159
upperneck -21.5085 1.09595 -10.0635
head -6.0606 1.59913 -3.42766
rclavicle -5.56597e-015 7.05686e-015
rhumerus 24.5765 38.6799 -44.4019
rradius 58.7965
rwrist 28.2308
rhand -62.5347 -12.2675
rfingers 7.12502
rthumb -34.5614 -38.9248
lclavicle -5.56597e-015 7.05686e-015
lhumerus 31.711 -19.128 54.3168
lradius 35.3715
lwrist -23.4201
lhand -57.9374 -35.8999
lfingers 7.12502
lthumb -30.1862 -8.34651
rfemur -49.0795 2.6892 22.1498
rtibia 109.83
rfoot 34.0379 14.4493
rtoes 21.971
lfemur -26.694 22.517 -1.69723
ltibia 96.1646
lfoot 28.2205 -25.2196
ltoes 24.1324
821
root 18.9509 9.7218 -1.04005 -6.03853 82.7282 -57.6949
lowerback 39.1031 1.89437 -2.91244
upperback 2.75383 1.79064 1.61193
thorax -16.4056 1.13426 2.45161
lowerneck -2.09232 1.52171 0.640103
upperneck -21.5489 1.07582 -9.70107
head -6.08507 1.56585 -3.30955
rclavicle 2.22639e-014 1.09332e-014
rhumerus 25.7384 38.0766 -43.3804
rradius 58.7766
rwrist 27.5041
rhand -61.9863 -11.4934
rfingers 7.12502
rthumb -34.0407 -38.2681
lclavicle 2.22639e-014 1.09332e-014
lhumerus 32.1812 -19.2933 53.888
lradius 35.2862
lwrist -23.6652
lhand -57.7915 -36.0636
lfingers 7.12502
lthumb -30.047 -8.48489
rfemur -48.7269 2.3662 22.2284
rtibia 109.524
rfoot 34.7134 14.315
rtoes 22.7256
lfemur -28.0625 23.5016 -1.28412
ltibia 97.4569
lfoot 28.4194 -25.4997
ltoes 24.5608
822
root 18.9781 9.74815 -1.00358 -6.41187 83.2163 -58.0486
lowerback 39.1093 1.77387 -2.99376
upperback 2.77208 1.54423 1.2574
thorax -16.3542 1.02688 2.21537
lowerneck -2.06492 1.46305 0.626042
upperneck -21.5924 1.05649 -9.33855
head -6.10965 1.53352 -3.19068
rclavicle -1.59028e-014 2.23633e-014
rhumerus 26.9092 37.4294 -42.3489
rradius 58.6735
rwrist 26.7543
rhand -61.4771 -10.8446
rfingers 7.12502
rthumb -33.5569 -37.7256
lclavicle -1.59028e-014 2.23633e-014
lhumerus 32.6687 -19.5044 53.4225
lradius 35.2093
lwrist -23.8609
lhand -57.6493 -36.2185
lfingers 7.12502
lthumb -29.9113 -8.61523
rfemur -48.4155 2.10137 22.2858
rtibia 109.3
rfoot 35.3552 14.2138
rtoes 23.1653
lfemur -29.5087 24.5271 -0.903062
ltibia 98.8458
lfoot 28.6003 -25.8179
ltoes 24.8892
823
root 19.005 9.77185 -0.968529 -6.6882 83.6562 -58.3297
lowerback 39.068 1.68412 -3.10492
upperback 2.79428 1.3273 0.913509
thorax -16.286 0.934007 1.99359
lowerneck -2.03426 1.40657 0.599942
upperneck -21.6471 1.03928 -8.98073
head -6.1382 1.50426 -3.0718
rclavicle -1.59028e-015 8.94531e-015
rhumerus 28.0857 36.7477 -41.3141
rradius 58.4936
rwrist 25.9684
rhand -61.0134 -10.3195
rfingers 7.12502
rthumb -33.1161 -37.2952
lclavicle -1.59028e-015 8.94531e-015
lhumerus 33.1745 -19.7684 52.9161
lradius 35.1318
lwrist -23.9901
lhand -57.5168 -36.4041
lfingers 7.12502
lthumb -29.7848 -8.77805
rfemur -48.144 1.8911 22.3219
rtibia 109.153
rfoot 35.929 14.1503
rtoes 23.4987
lfemur -31.0252 25.5684 -0.558329
ltibia 100.316
lfoot 28.7641 -26.1709
ltoes 25.1288
824
root 19.0316 9.79278 -0.93498 -6.94768 84.0474 -58.6166
lowerback 38.9818 1.62324 -3.23689
upperback 2.82097 1.14287 0.586818
thorax -16.201 0.856377 1.78731
lowerneck -2.00419 1.35241 0.559331
upperneck -21.7116 1.02343 -8.63429
head -6.16966 1.47835 -2.95452
rclavicle 3.65764e-014 5.88403e-014
rhumerus 29.2648 36.0316 -40.2781
rradius 58.2422
rwrist 25.1531
rhand -60.574 -9.89914
rfingers 7.12502
rthumb -32.6981 -36.9626
lclavicle 3.65764e-014 5.88403e-014
lhumerus 33.6961 -20.0782 52.3772
lradius 35.0551
lwrist -24.0538
lhand -57.3991 -36.6128
lfingers 7.12502
lthumb -29.6725 -8.96675
rfemur -47.9114 1.73655 22.3493
rtibia 109.076
rfoot 36.4156 14.1245
rtoes 23.665
lfemur -32.6096 26.6117 -0.241066
ltibia 101.852
lfoot 28.9127 -26.5743
ltoes 25.2568
825
root 19.0585 9.81112 -0.90335 -7.22168 84.3952 -58.9286
lowerback 38.8666 1.58735 -3.38454
upperback 2.85235 0.989085 0.281808
thorax -16.1038 0.793029 1.59952
lowerneck -1.97705 1.30364 0.498239
upperneck -21.7826 1.01233 -8.30449
head -6.20241 1.45815 -2.83951
rclavicle -3.02153e-014 -3.926e-014
rhumerus 30.4383 35.2824 -39.2686
rradius 57.912
rwrist 24.3365
rhand -60.1526 -9.5754
rfingers 7.12502
rthumb -32.2972 -36.7213
lclavicle -3.02153e-014 -3.926e-014
lhumerus 34.2229 -20.4185 51.8273
lradius 34.9798
lwrist -24.066
lhand -57.2931 -36.8378
lfingers 7.12502
lthumb -29.5713 -9.17377
rfemur -47.7019 1.62819 22.3664
rtibia 109.048
rfoot 36.8184 14.1283
rtoes 23.7801
lfemur -34.2444 27.6285 0.0478478
ltibia 103.431
lfoot 29.0601 -27.0341
ltoes 25.2724
826
root 19.0857 9.82705 -0.873815 -7.57816 84.6997 -59.3255
lowerback 38.7343 1.57531 -3.54252
upperback 2.88957 0.867398 0.00214794
thorax -15.9968 0.744326 1.43069
lowerneck -1.97116 1.25992 0.417764
upperneck -21.8479 1.00597 -7.99494
head -6.22932 1.44318 -2.72758
rclavicle 3.02153e-014 1.92821e-014
rhumerus 31.6013 34.494 -38.2961
rradius 57.5035
rwrist 23.5514
rhand -59.7498 -9.36753
rfingers 7.12502
rthumb -31.9136 -36.5908
lclavicle 3.02153e-014 1.92821e-014
lhumerus 34.75 -20.7773 51.2831
lradius 34.9055
lwrist -24.036
lhand -57.1952 -37.0897
lfingers 7.12502
lthumb -29.4778 -9.40914
rfemur -47.508 1.56532 22.378
rtibia 109.054
rfoot 37.1535 14.1548
rtoes 23.8556
lfemur -35.9151 28.6038 0.319333
ltibia 105.031
lfoot 29.232 -27.5533
ltoes 25.1821
827
root 19.1134 9.84093 -0.846635 -8.16836 84.9653 -59.9361
lowerback 38.6177 1.58227 -3.69678
upperback 2.93263 0.777343 -0.248834
thorax -15.8917 0.709527 1.2769
lowerneck -1.98142 1.22078 0.323067
upperneck -21.9082 1.00169 -7.71575
head -6.25152 1.43263 -2.62287
rclavicle 2.06736e-014 3.45885e-014
rhumerus 32.7394 33.6624 -37.3874
rradius 57.0136
rwrist 22.8438
rhand -59.3603 -9.25806
rfingers 7.12502
rthumb -31.5427 -36.5547
lclavicle 2.06736e-014 3.45885e-014
lhumerus 35.2753 -21.1504 50.7532
lradius 34.8281
lwrist -23.9693
lhand -57.1107 -37.3825
lfingers 7.12502
lthumb -29.3972 -9.68776
rfemur -47.2971 1.54057 22.3945
rtibia 109.071
rfoot 37.4324 14.1926
rtoes 23.8981
lfemur -37.5881 29.5223 0.593387
ltibia 106.631
lfoot 29.4384 -28.1325
ltoes 24.9855
828
root 19.142 9.85328 -0.822227 -9.05801 85.1987 -60.8023
lowerback 38.5513 1.60537 -3.83907
upperback 2.98077 0.717447 -0.470553
thorax -15.8016 0.687861 1.13467
lowerneck -2.00088 1.18506 0.213758
upperneck -21.9614 0.997789 -7.46464
head -6.26966 1.42542 -2.5245
rclavicle 2.78299e-014 6.55989e-015
rhumerus 33.8356 32.7815 -36.5682
rradius 56.4393
rwrist 22.2647
rhand -58.9889 -9.23474
rfingers 7.12502
rthumb -31.1888 -36.6001
lclavicle 2.78299e-014 6.55989e-015
lhumerus 35.7642 -21.5073 50.3088
lradius 34.754
lwrist -23.936
lhand -57.0359 -37.7168
lfingers 7.12502
lthumb -29.3258 -10.0096
rfemur -47.0365 1.53962 22.4147
rtibia 109.076
rfoot 37.6712 14.2512
rtoes 23.9123
lfemur -39.2302 30.3633 0.875587
ltibia 108.208
lfoot 29.6825 -28.7707
ltoes 24.6896
829
root 19.1714 9.86438 -0.800649 -10.3226 85.4017 -61.9946
lowerback 38.5436 1.64006 -3.96269
upperback 3.03466 0.683821 -0.664386
thorax -15.7286 0.677359 1.00056
lowerneck -2.02481 1.15377 0.106647
upperneck -22.0122 0.993899 -7.25252
head -6.28571 1.42108 -2.43902
rclavicle -3.89618e-014 -1.40143e-014
rhumerus 34.8874 31.8513 -35.8523
rradius 55.7811
rwrist 21.8457
rhand -58.642 -9.24254
rfingers 7.12502
rthumb -30.8581 -36.671
lclavicle -3.89618e-014 -1.40143e-014
lhumerus 36.2373 -21.8603 49.8981
lradius 34.688
lwrist -23.8929
lhand -56.9598 -38.0506
lfingers 7.12502
lthumb -29.2531 -10.3306
rfemur -46.7192 1.55812 22.444
rtibia 109.054
rfoot 37.8845 14.3201
rtoes 23.9145
lfemur -40.8321 31.1229 1.17137
ltibia 109.749
lfoot 29.9697 -29.4584
ltoes 24.3076
830
root 19.2017 9.87459 -0.782126 -12.0232 85.5797 -63.5617
lowerback 38.614 1.68345 -4.05948
upperback 3.0947 0.674991 -0.831016
thorax -15.6789 0.677109 0.869828
lowerneck -2.06128 1.12491 0.00105532
upperneck -22.0489 0.98816 -7.07645
head -6.29469 1.41791 -2.3649
rclavicle -3.26007e-014 -5.45664e-014
rhumerus 35.8828 30.8688 -35.2557
rradius 55.0395
rwrist 21.6187
rhand -58.3418 -9.25115
rfingers 7.12502
rthumb -30.5718 -36.7333
lclavicle -3.26007e-014 -5.45664e-014
lhumerus 36.6693 -22.1879 49.5834
lradius 34.6292
lwrist -23.9031
lhand -56.8897 -38.3898
lfingers 7.12502
lthumb -29.1861 -10.6582
rfemur -46.3271 1.58681 22.4831
rtibia 108.991
rfoot 38.0874 14.3854
rtoes 23.9467
lfemur -42.3747 31.7894 1.48325
ltibia 111.239
lfoot 30.3009 -30.1779
ltoes 23.8666
